<mxfile host="app.diagrams.net" agent="Mozilla/5.0 (Windows NT 10.0; Win64; x64) AppleWebKit/537.36 (KHTML, like Gecko) Chrome/132.0.0.0 Safari/537.36" version="26.0.6">
  <diagram name="Page-1" id="2a216829-ef6e-dabb-86c1-c78162f3ba2b">
    <mxGraphModel dx="3718" dy="2644" grid="1" gridSize="10" guides="1" tooltips="1" connect="1" arrows="1" fold="1" page="1" pageScale="1" pageWidth="850" pageHeight="1100" background="none" math="0" shadow="0">
      <root>
        <mxCell id="0" />
        <mxCell id="1" parent="0" />
        <mxCell id="gqWy8MbFRQ2QWNto5ffZ-2" value="Предбанник для кандидатов" style="swimlane;whiteSpace=wrap;html=1;" vertex="1" parent="1">
          <mxGeometry x="-380" y="440" width="800" height="430" as="geometry" />
        </mxCell>
        <mxCell id="gqWy8MbFRQ2QWNto5ffZ-5" value="" style="edgeStyle=orthogonalEdgeStyle;rounded=0;orthogonalLoop=1;jettySize=auto;html=1;" edge="1" parent="gqWy8MbFRQ2QWNto5ffZ-2" source="gqWy8MbFRQ2QWNto5ffZ-3" target="gqWy8MbFRQ2QWNto5ffZ-4">
          <mxGeometry relative="1" as="geometry" />
        </mxCell>
        <mxCell id="gqWy8MbFRQ2QWNto5ffZ-10" value="has_many" style="edgeLabel;html=1;align=center;verticalAlign=middle;resizable=0;points=[];" vertex="1" connectable="0" parent="gqWy8MbFRQ2QWNto5ffZ-5">
          <mxGeometry x="0.0444" y="-3" relative="1" as="geometry">
            <mxPoint as="offset" />
          </mxGeometry>
        </mxCell>
        <mxCell id="gqWy8MbFRQ2QWNto5ffZ-14" value="" style="edgeStyle=orthogonalEdgeStyle;rounded=0;orthogonalLoop=1;jettySize=auto;html=1;" edge="1" parent="gqWy8MbFRQ2QWNto5ffZ-2" source="gqWy8MbFRQ2QWNto5ffZ-3" target="gqWy8MbFRQ2QWNto5ffZ-13">
          <mxGeometry relative="1" as="geometry" />
        </mxCell>
        <mxCell id="gqWy8MbFRQ2QWNto5ffZ-36" value="has_one" style="edgeLabel;html=1;align=center;verticalAlign=middle;resizable=0;points=[];" vertex="1" connectable="0" parent="gqWy8MbFRQ2QWNto5ffZ-14">
          <mxGeometry x="-0.325" y="-3" relative="1" as="geometry">
            <mxPoint as="offset" />
          </mxGeometry>
        </mxCell>
        <mxCell id="gqWy8MbFRQ2QWNto5ffZ-16" value="" style="edgeStyle=orthogonalEdgeStyle;rounded=0;orthogonalLoop=1;jettySize=auto;html=1;" edge="1" parent="gqWy8MbFRQ2QWNto5ffZ-2" source="gqWy8MbFRQ2QWNto5ffZ-3" target="gqWy8MbFRQ2QWNto5ffZ-15">
          <mxGeometry relative="1" as="geometry" />
        </mxCell>
        <mxCell id="gqWy8MbFRQ2QWNto5ffZ-38" value="has_one" style="edgeLabel;html=1;align=center;verticalAlign=middle;resizable=0;points=[];" vertex="1" connectable="0" parent="gqWy8MbFRQ2QWNto5ffZ-16">
          <mxGeometry x="0.05" y="-4" relative="1" as="geometry">
            <mxPoint as="offset" />
          </mxGeometry>
        </mxCell>
        <mxCell id="gqWy8MbFRQ2QWNto5ffZ-18" value="" style="edgeStyle=orthogonalEdgeStyle;rounded=0;orthogonalLoop=1;jettySize=auto;html=1;exitX=0.75;exitY=0;exitDx=0;exitDy=0;entryX=0;entryY=0.5;entryDx=0;entryDy=0;" edge="1" parent="gqWy8MbFRQ2QWNto5ffZ-2" source="gqWy8MbFRQ2QWNto5ffZ-3" target="gqWy8MbFRQ2QWNto5ffZ-17">
          <mxGeometry relative="1" as="geometry" />
        </mxCell>
        <mxCell id="gqWy8MbFRQ2QWNto5ffZ-37" value="has_many" style="edgeLabel;html=1;align=center;verticalAlign=middle;resizable=0;points=[];" vertex="1" connectable="0" parent="gqWy8MbFRQ2QWNto5ffZ-18">
          <mxGeometry x="-0.125" relative="1" as="geometry">
            <mxPoint as="offset" />
          </mxGeometry>
        </mxCell>
        <mxCell id="gqWy8MbFRQ2QWNto5ffZ-211" style="edgeStyle=orthogonalEdgeStyle;rounded=0;orthogonalLoop=1;jettySize=auto;html=1;exitX=0;exitY=0;exitDx=0;exitDy=0;entryX=0.75;entryY=1;entryDx=0;entryDy=0;" edge="1" parent="gqWy8MbFRQ2QWNto5ffZ-2" source="gqWy8MbFRQ2QWNto5ffZ-3" target="gqWy8MbFRQ2QWNto5ffZ-8">
          <mxGeometry relative="1" as="geometry" />
        </mxCell>
        <mxCell id="gqWy8MbFRQ2QWNto5ffZ-212" value="has_one" style="edgeLabel;html=1;align=center;verticalAlign=middle;resizable=0;points=[];" vertex="1" connectable="0" parent="gqWy8MbFRQ2QWNto5ffZ-211">
          <mxGeometry x="0.023" y="-3" relative="1" as="geometry">
            <mxPoint as="offset" />
          </mxGeometry>
        </mxCell>
        <mxCell id="gqWy8MbFRQ2QWNto5ffZ-3" value="Кандидат" style="rounded=1;whiteSpace=wrap;html=1;strokeColor=default;" vertex="1" parent="gqWy8MbFRQ2QWNto5ffZ-2">
          <mxGeometry x="400" y="200" width="120" height="60" as="geometry" />
        </mxCell>
        <mxCell id="gqWy8MbFRQ2QWNto5ffZ-7" value="" style="edgeStyle=orthogonalEdgeStyle;rounded=0;orthogonalLoop=1;jettySize=auto;html=1;" edge="1" parent="gqWy8MbFRQ2QWNto5ffZ-2" source="gqWy8MbFRQ2QWNto5ffZ-4" target="gqWy8MbFRQ2QWNto5ffZ-6">
          <mxGeometry relative="1" as="geometry" />
        </mxCell>
        <mxCell id="gqWy8MbFRQ2QWNto5ffZ-11" value="has_many" style="edgeLabel;html=1;align=center;verticalAlign=middle;resizable=0;points=[];" vertex="1" connectable="0" parent="gqWy8MbFRQ2QWNto5ffZ-7">
          <mxGeometry x="-0.0545" y="2" relative="1" as="geometry">
            <mxPoint as="offset" />
          </mxGeometry>
        </mxCell>
        <mxCell id="gqWy8MbFRQ2QWNto5ffZ-4" value="Ответы" style="whiteSpace=wrap;html=1;rounded=1;" vertex="1" parent="gqWy8MbFRQ2QWNto5ffZ-2">
          <mxGeometry x="400" y="50" width="120" height="60" as="geometry" />
        </mxCell>
        <mxCell id="gqWy8MbFRQ2QWNto5ffZ-9" value="" style="edgeStyle=orthogonalEdgeStyle;rounded=0;orthogonalLoop=1;jettySize=auto;html=1;" edge="1" parent="gqWy8MbFRQ2QWNto5ffZ-2" source="gqWy8MbFRQ2QWNto5ffZ-8" target="gqWy8MbFRQ2QWNto5ffZ-6">
          <mxGeometry relative="1" as="geometry" />
        </mxCell>
        <mxCell id="gqWy8MbFRQ2QWNto5ffZ-12" value="has_many" style="edgeLabel;html=1;align=center;verticalAlign=middle;resizable=0;points=[];" vertex="1" connectable="0" parent="gqWy8MbFRQ2QWNto5ffZ-9">
          <mxGeometry x="-0.0286" y="-2" relative="1" as="geometry">
            <mxPoint as="offset" />
          </mxGeometry>
        </mxCell>
        <mxCell id="gqWy8MbFRQ2QWNto5ffZ-6" value="Вопросы" style="whiteSpace=wrap;html=1;rounded=1;" vertex="1" parent="gqWy8MbFRQ2QWNto5ffZ-2">
          <mxGeometry x="220" y="50" width="100" height="60" as="geometry" />
        </mxCell>
        <mxCell id="gqWy8MbFRQ2QWNto5ffZ-8" value="Анкета" style="whiteSpace=wrap;html=1;rounded=1;" vertex="1" parent="gqWy8MbFRQ2QWNto5ffZ-2">
          <mxGeometry x="10" y="50" width="90" height="60" as="geometry" />
        </mxCell>
        <mxCell id="gqWy8MbFRQ2QWNto5ffZ-13" value="Данные клиента" style="whiteSpace=wrap;html=1;rounded=1;" vertex="1" parent="gqWy8MbFRQ2QWNto5ffZ-2">
          <mxGeometry x="200" y="200" width="120" height="60" as="geometry" />
        </mxCell>
        <mxCell id="gqWy8MbFRQ2QWNto5ffZ-15" value="Результат" style="whiteSpace=wrap;html=1;rounded=1;" vertex="1" parent="gqWy8MbFRQ2QWNto5ffZ-2">
          <mxGeometry x="400" y="340" width="120" height="60" as="geometry" />
        </mxCell>
        <mxCell id="gqWy8MbFRQ2QWNto5ffZ-17" value="Характеристики" style="whiteSpace=wrap;html=1;rounded=1;strokeColor=default;" vertex="1" parent="gqWy8MbFRQ2QWNto5ffZ-2">
          <mxGeometry x="590" y="110" width="120" height="60" as="geometry" />
        </mxCell>
        <mxCell id="gqWy8MbFRQ2QWNto5ffZ-41" value="Менеджер" style="rounded=1;whiteSpace=wrap;html=1;strokeColor=#97D077;strokeWidth=3;" vertex="1" parent="gqWy8MbFRQ2QWNto5ffZ-2">
          <mxGeometry x="590" y="340" width="120" height="60" as="geometry" />
        </mxCell>
        <mxCell id="gqWy8MbFRQ2QWNto5ffZ-210" value="Контакты" style="text;html=1;align=center;verticalAlign=middle;whiteSpace=wrap;rounded=0;" vertex="1" parent="gqWy8MbFRQ2QWNto5ffZ-2">
          <mxGeometry x="200" y="260" width="60" height="30" as="geometry" />
        </mxCell>
        <mxCell id="gqWy8MbFRQ2QWNto5ffZ-19" value="ЛК Менеджера" style="swimlane;whiteSpace=wrap;html=1;" vertex="1" parent="1">
          <mxGeometry x="2060" y="250" width="680" height="470" as="geometry" />
        </mxCell>
        <mxCell id="gqWy8MbFRQ2QWNto5ffZ-25" value="Менеджер" style="rounded=1;whiteSpace=wrap;html=1;strokeColor=default;" vertex="1" parent="gqWy8MbFRQ2QWNto5ffZ-19">
          <mxGeometry x="80" y="380" width="120" height="60" as="geometry" />
        </mxCell>
        <mxCell id="gqWy8MbFRQ2QWNto5ffZ-39" value="Типы услуг" style="whiteSpace=wrap;html=1;rounded=1;" vertex="1" parent="gqWy8MbFRQ2QWNto5ffZ-19">
          <mxGeometry x="240" y="340" width="120" height="60" as="geometry" />
        </mxCell>
        <mxCell id="gqWy8MbFRQ2QWNto5ffZ-173" value="" style="edgeStyle=orthogonalEdgeStyle;rounded=0;orthogonalLoop=1;jettySize=auto;html=1;" edge="1" parent="gqWy8MbFRQ2QWNto5ffZ-19" source="gqWy8MbFRQ2QWNto5ffZ-169" target="gqWy8MbFRQ2QWNto5ffZ-39">
          <mxGeometry relative="1" as="geometry" />
        </mxCell>
        <mxCell id="gqWy8MbFRQ2QWNto5ffZ-174" value="many_to_many" style="edgeLabel;html=1;align=center;verticalAlign=middle;resizable=0;points=[];" vertex="1" connectable="0" parent="gqWy8MbFRQ2QWNto5ffZ-173">
          <mxGeometry x="-0.0224" y="4" relative="1" as="geometry">
            <mxPoint as="offset" />
          </mxGeometry>
        </mxCell>
        <mxCell id="gqWy8MbFRQ2QWNto5ffZ-176" value="" style="edgeStyle=orthogonalEdgeStyle;rounded=0;orthogonalLoop=1;jettySize=auto;html=1;" edge="1" parent="gqWy8MbFRQ2QWNto5ffZ-19" source="gqWy8MbFRQ2QWNto5ffZ-169" target="gqWy8MbFRQ2QWNto5ffZ-170">
          <mxGeometry relative="1" as="geometry" />
        </mxCell>
        <mxCell id="gqWy8MbFRQ2QWNto5ffZ-177" value="" style="edgeStyle=orthogonalEdgeStyle;rounded=0;orthogonalLoop=1;jettySize=auto;html=1;" edge="1" parent="gqWy8MbFRQ2QWNto5ffZ-19" source="gqWy8MbFRQ2QWNto5ffZ-169" target="gqWy8MbFRQ2QWNto5ffZ-172">
          <mxGeometry relative="1" as="geometry" />
        </mxCell>
        <mxCell id="gqWy8MbFRQ2QWNto5ffZ-186" value="has_one" style="edgeLabel;html=1;align=center;verticalAlign=middle;resizable=0;points=[];" vertex="1" connectable="0" parent="gqWy8MbFRQ2QWNto5ffZ-177">
          <mxGeometry x="0.3143" y="2" relative="1" as="geometry">
            <mxPoint x="16" y="-2" as="offset" />
          </mxGeometry>
        </mxCell>
        <mxCell id="gqWy8MbFRQ2QWNto5ffZ-182" style="edgeStyle=orthogonalEdgeStyle;rounded=0;orthogonalLoop=1;jettySize=auto;html=1;exitX=0;exitY=0;exitDx=0;exitDy=0;entryX=0.5;entryY=1;entryDx=0;entryDy=0;" edge="1" parent="gqWy8MbFRQ2QWNto5ffZ-19" source="gqWy8MbFRQ2QWNto5ffZ-169" target="gqWy8MbFRQ2QWNto5ffZ-171">
          <mxGeometry relative="1" as="geometry" />
        </mxCell>
        <mxCell id="gqWy8MbFRQ2QWNto5ffZ-185" value="has_one" style="edgeLabel;html=1;align=center;verticalAlign=middle;resizable=0;points=[];" vertex="1" connectable="0" parent="gqWy8MbFRQ2QWNto5ffZ-182">
          <mxGeometry x="-0.1474" y="-3" relative="1" as="geometry">
            <mxPoint as="offset" />
          </mxGeometry>
        </mxCell>
        <mxCell id="gqWy8MbFRQ2QWNto5ffZ-169" value="Заказ" style="whiteSpace=wrap;html=1;rounded=1;" vertex="1" parent="gqWy8MbFRQ2QWNto5ffZ-19">
          <mxGeometry x="240" y="210" width="120" height="60" as="geometry" />
        </mxCell>
        <mxCell id="gqWy8MbFRQ2QWNto5ffZ-170" value="Воркеры" style="whiteSpace=wrap;html=1;rounded=1;" vertex="1" parent="gqWy8MbFRQ2QWNto5ffZ-19">
          <mxGeometry x="280" y="50" width="120" height="60" as="geometry" />
        </mxCell>
        <mxCell id="gqWy8MbFRQ2QWNto5ffZ-171" value="Клиент" style="whiteSpace=wrap;html=1;rounded=1;" vertex="1" parent="gqWy8MbFRQ2QWNto5ffZ-19">
          <mxGeometry x="80" y="60" width="120" height="60" as="geometry" />
        </mxCell>
        <mxCell id="gqWy8MbFRQ2QWNto5ffZ-172" value="Фидбек по заказу" style="whiteSpace=wrap;html=1;rounded=1;" vertex="1" parent="gqWy8MbFRQ2QWNto5ffZ-19">
          <mxGeometry x="50" y="210" width="120" height="60" as="geometry" />
        </mxCell>
        <mxCell id="gqWy8MbFRQ2QWNto5ffZ-178" value="Счет" style="text;strokeColor=none;fillColor=none;align=left;verticalAlign=middle;spacingLeft=4;spacingRight=4;overflow=hidden;points=[[0,0.5],[1,0.5]];portConstraint=eastwest;rotatable=0;whiteSpace=wrap;html=1;" vertex="1" parent="gqWy8MbFRQ2QWNto5ffZ-19">
          <mxGeometry x="270" y="140" width="80" height="30" as="geometry" />
        </mxCell>
        <mxCell id="gqWy8MbFRQ2QWNto5ffZ-180" value="Контактные данные" style="text;strokeColor=none;fillColor=none;align=left;verticalAlign=middle;spacingLeft=4;spacingRight=4;overflow=hidden;points=[[0,0.5],[1,0.5]];portConstraint=eastwest;rotatable=0;whiteSpace=wrap;html=1;" vertex="1" parent="gqWy8MbFRQ2QWNto5ffZ-19">
          <mxGeometry x="60" y="120" width="80" height="30" as="geometry" />
        </mxCell>
        <mxCell id="gqWy8MbFRQ2QWNto5ffZ-42" value="ЛК Клиента" style="swimlane;whiteSpace=wrap;html=1;" vertex="1" parent="1">
          <mxGeometry x="1320" y="-380" width="720" height="540" as="geometry" />
        </mxCell>
        <mxCell id="gqWy8MbFRQ2QWNto5ffZ-47" value="" style="edgeStyle=orthogonalEdgeStyle;rounded=0;orthogonalLoop=1;jettySize=auto;html=1;" edge="1" parent="gqWy8MbFRQ2QWNto5ffZ-42" source="gqWy8MbFRQ2QWNto5ffZ-43" target="gqWy8MbFRQ2QWNto5ffZ-46">
          <mxGeometry relative="1" as="geometry" />
        </mxCell>
        <mxCell id="gqWy8MbFRQ2QWNto5ffZ-48" value="has_many" style="edgeLabel;html=1;align=center;verticalAlign=middle;resizable=0;points=[];" vertex="1" connectable="0" parent="gqWy8MbFRQ2QWNto5ffZ-47">
          <mxGeometry x="-0.225" y="3" relative="1" as="geometry">
            <mxPoint as="offset" />
          </mxGeometry>
        </mxCell>
        <mxCell id="gqWy8MbFRQ2QWNto5ffZ-56" value="" style="edgeStyle=orthogonalEdgeStyle;rounded=0;orthogonalLoop=1;jettySize=auto;html=1;" edge="1" parent="gqWy8MbFRQ2QWNto5ffZ-42" source="gqWy8MbFRQ2QWNto5ffZ-43" target="gqWy8MbFRQ2QWNto5ffZ-55">
          <mxGeometry relative="1" as="geometry" />
        </mxCell>
        <mxCell id="gqWy8MbFRQ2QWNto5ffZ-57" value="has_many" style="edgeLabel;html=1;align=center;verticalAlign=middle;resizable=0;points=[];" vertex="1" connectable="0" parent="gqWy8MbFRQ2QWNto5ffZ-56">
          <mxGeometry x="-0.2485" y="3" relative="1" as="geometry">
            <mxPoint x="-1" as="offset" />
          </mxGeometry>
        </mxCell>
        <mxCell id="gqWy8MbFRQ2QWNto5ffZ-64" value="" style="edgeStyle=orthogonalEdgeStyle;rounded=0;orthogonalLoop=1;jettySize=auto;html=1;" edge="1" parent="gqWy8MbFRQ2QWNto5ffZ-42" source="gqWy8MbFRQ2QWNto5ffZ-43" target="gqWy8MbFRQ2QWNto5ffZ-63">
          <mxGeometry relative="1" as="geometry" />
        </mxCell>
        <mxCell id="gqWy8MbFRQ2QWNto5ffZ-65" value="has_one" style="edgeLabel;html=1;align=center;verticalAlign=middle;resizable=0;points=[];" vertex="1" connectable="0" parent="gqWy8MbFRQ2QWNto5ffZ-64">
          <mxGeometry x="0.1897" y="-4" relative="1" as="geometry">
            <mxPoint x="-1" as="offset" />
          </mxGeometry>
        </mxCell>
        <mxCell id="gqWy8MbFRQ2QWNto5ffZ-220" value="" style="edgeStyle=orthogonalEdgeStyle;rounded=0;orthogonalLoop=1;jettySize=auto;html=1;" edge="1" parent="gqWy8MbFRQ2QWNto5ffZ-42" source="gqWy8MbFRQ2QWNto5ffZ-43" target="gqWy8MbFRQ2QWNto5ffZ-219">
          <mxGeometry relative="1" as="geometry" />
        </mxCell>
        <mxCell id="gqWy8MbFRQ2QWNto5ffZ-221" value="has_many" style="edgeLabel;html=1;align=center;verticalAlign=middle;resizable=0;points=[];" vertex="1" connectable="0" parent="gqWy8MbFRQ2QWNto5ffZ-220">
          <mxGeometry x="-0.1167" relative="1" as="geometry">
            <mxPoint as="offset" />
          </mxGeometry>
        </mxCell>
        <mxCell id="gqWy8MbFRQ2QWNto5ffZ-43" value="Клиент" style="rounded=1;whiteSpace=wrap;html=1;strokeColor=default;" vertex="1" parent="gqWy8MbFRQ2QWNto5ffZ-42">
          <mxGeometry x="400" y="360" width="120" height="60" as="geometry" />
        </mxCell>
        <mxCell id="gqWy8MbFRQ2QWNto5ffZ-44" value="Типы услуг" style="whiteSpace=wrap;html=1;rounded=1;" vertex="1" parent="gqWy8MbFRQ2QWNto5ffZ-42">
          <mxGeometry x="70" y="200" width="120" height="60" as="geometry" />
        </mxCell>
        <mxCell id="gqWy8MbFRQ2QWNto5ffZ-49" style="edgeStyle=orthogonalEdgeStyle;rounded=0;orthogonalLoop=1;jettySize=auto;html=1;exitX=0;exitY=0.5;exitDx=0;exitDy=0;entryX=1;entryY=0.5;entryDx=0;entryDy=0;" edge="1" parent="gqWy8MbFRQ2QWNto5ffZ-42" source="gqWy8MbFRQ2QWNto5ffZ-46" target="gqWy8MbFRQ2QWNto5ffZ-44">
          <mxGeometry relative="1" as="geometry" />
        </mxCell>
        <mxCell id="gqWy8MbFRQ2QWNto5ffZ-50" value="has_one" style="edgeLabel;html=1;align=center;verticalAlign=middle;resizable=0;points=[];" vertex="1" connectable="0" parent="gqWy8MbFRQ2QWNto5ffZ-49">
          <mxGeometry x="0.025" y="1" relative="1" as="geometry">
            <mxPoint as="offset" />
          </mxGeometry>
        </mxCell>
        <mxCell id="gqWy8MbFRQ2QWNto5ffZ-53" value="" style="edgeStyle=orthogonalEdgeStyle;rounded=0;orthogonalLoop=1;jettySize=auto;html=1;" edge="1" parent="gqWy8MbFRQ2QWNto5ffZ-42" source="gqWy8MbFRQ2QWNto5ffZ-46" target="gqWy8MbFRQ2QWNto5ffZ-52">
          <mxGeometry relative="1" as="geometry" />
        </mxCell>
        <mxCell id="gqWy8MbFRQ2QWNto5ffZ-54" value="has_one" style="edgeLabel;html=1;align=center;verticalAlign=middle;resizable=0;points=[];" vertex="1" connectable="0" parent="gqWy8MbFRQ2QWNto5ffZ-53">
          <mxGeometry x="0.0382" y="2" relative="1" as="geometry">
            <mxPoint as="offset" />
          </mxGeometry>
        </mxCell>
        <mxCell id="gqWy8MbFRQ2QWNto5ffZ-46" value="Заказ" style="whiteSpace=wrap;html=1;rounded=1;strokeColor=default;" vertex="1" parent="gqWy8MbFRQ2QWNto5ffZ-42">
          <mxGeometry x="400" y="200" width="120" height="60" as="geometry" />
        </mxCell>
        <mxCell id="gqWy8MbFRQ2QWNto5ffZ-52" value="Статус заказа" style="whiteSpace=wrap;html=1;rounded=1;" vertex="1" parent="gqWy8MbFRQ2QWNto5ffZ-42">
          <mxGeometry x="510" y="40" width="120" height="60" as="geometry" />
        </mxCell>
        <mxCell id="gqWy8MbFRQ2QWNto5ffZ-55" value="Способы оплаты" style="whiteSpace=wrap;html=1;rounded=1;" vertex="1" parent="gqWy8MbFRQ2QWNto5ffZ-42">
          <mxGeometry x="560" y="300" width="120" height="60" as="geometry" />
        </mxCell>
        <mxCell id="gqWy8MbFRQ2QWNto5ffZ-61" value="Акт выполнения" style="whiteSpace=wrap;html=1;rounded=1;" vertex="1" parent="gqWy8MbFRQ2QWNto5ffZ-42">
          <mxGeometry x="180" y="60" width="120" height="60" as="geometry" />
        </mxCell>
        <mxCell id="gqWy8MbFRQ2QWNto5ffZ-62" style="edgeStyle=orthogonalEdgeStyle;rounded=0;orthogonalLoop=1;jettySize=auto;html=1;exitX=0.25;exitY=0;exitDx=0;exitDy=0;entryX=0.648;entryY=1.063;entryDx=0;entryDy=0;entryPerimeter=0;" edge="1" parent="gqWy8MbFRQ2QWNto5ffZ-42" source="gqWy8MbFRQ2QWNto5ffZ-46" target="gqWy8MbFRQ2QWNto5ffZ-61">
          <mxGeometry relative="1" as="geometry" />
        </mxCell>
        <mxCell id="gqWy8MbFRQ2QWNto5ffZ-233" value="has_one" style="edgeLabel;html=1;align=center;verticalAlign=middle;resizable=0;points=[];" vertex="1" connectable="0" parent="gqWy8MbFRQ2QWNto5ffZ-62">
          <mxGeometry x="0.0417" y="3" relative="1" as="geometry">
            <mxPoint as="offset" />
          </mxGeometry>
        </mxCell>
        <mxCell id="gqWy8MbFRQ2QWNto5ffZ-63" value="Данные клиента" style="whiteSpace=wrap;html=1;rounded=1;" vertex="1" parent="gqWy8MbFRQ2QWNto5ffZ-42">
          <mxGeometry x="150" y="360" width="120" height="60" as="geometry" />
        </mxCell>
        <mxCell id="gqWy8MbFRQ2QWNto5ffZ-219" value="Списания" style="whiteSpace=wrap;html=1;rounded=1;strokeWidth=3;strokeColor=#97D077;" vertex="1" parent="gqWy8MbFRQ2QWNto5ffZ-42">
          <mxGeometry x="280" y="480" width="120" height="60" as="geometry" />
        </mxCell>
        <mxCell id="gqWy8MbFRQ2QWNto5ffZ-66" value="ЛК Воркера" style="swimlane;whiteSpace=wrap;html=1;" vertex="1" parent="1">
          <mxGeometry x="820" y="300" width="720" height="540" as="geometry" />
        </mxCell>
        <mxCell id="gqWy8MbFRQ2QWNto5ffZ-67" value="" style="edgeStyle=orthogonalEdgeStyle;rounded=0;orthogonalLoop=1;jettySize=auto;html=1;" edge="1" parent="gqWy8MbFRQ2QWNto5ffZ-66" source="gqWy8MbFRQ2QWNto5ffZ-73" target="gqWy8MbFRQ2QWNto5ffZ-81">
          <mxGeometry relative="1" as="geometry" />
        </mxCell>
        <mxCell id="gqWy8MbFRQ2QWNto5ffZ-68" value="has_many" style="edgeLabel;html=1;align=center;verticalAlign=middle;resizable=0;points=[];" vertex="1" connectable="0" parent="gqWy8MbFRQ2QWNto5ffZ-67">
          <mxGeometry x="-0.225" y="3" relative="1" as="geometry">
            <mxPoint as="offset" />
          </mxGeometry>
        </mxCell>
        <mxCell id="gqWy8MbFRQ2QWNto5ffZ-69" value="" style="edgeStyle=orthogonalEdgeStyle;rounded=0;orthogonalLoop=1;jettySize=auto;html=1;" edge="1" parent="gqWy8MbFRQ2QWNto5ffZ-66" source="gqWy8MbFRQ2QWNto5ffZ-73" target="gqWy8MbFRQ2QWNto5ffZ-83">
          <mxGeometry relative="1" as="geometry" />
        </mxCell>
        <mxCell id="gqWy8MbFRQ2QWNto5ffZ-70" value="has_one" style="edgeLabel;html=1;align=center;verticalAlign=middle;resizable=0;points=[];" vertex="1" connectable="0" parent="gqWy8MbFRQ2QWNto5ffZ-69">
          <mxGeometry x="-0.2485" y="3" relative="1" as="geometry">
            <mxPoint x="-1" as="offset" />
          </mxGeometry>
        </mxCell>
        <mxCell id="gqWy8MbFRQ2QWNto5ffZ-71" value="" style="edgeStyle=orthogonalEdgeStyle;rounded=0;orthogonalLoop=1;jettySize=auto;html=1;" edge="1" parent="gqWy8MbFRQ2QWNto5ffZ-66" source="gqWy8MbFRQ2QWNto5ffZ-73" target="gqWy8MbFRQ2QWNto5ffZ-87">
          <mxGeometry relative="1" as="geometry" />
        </mxCell>
        <mxCell id="gqWy8MbFRQ2QWNto5ffZ-72" value="has_many" style="edgeLabel;html=1;align=center;verticalAlign=middle;resizable=0;points=[];" vertex="1" connectable="0" parent="gqWy8MbFRQ2QWNto5ffZ-71">
          <mxGeometry x="0.1897" y="-4" relative="1" as="geometry">
            <mxPoint x="-1" as="offset" />
          </mxGeometry>
        </mxCell>
        <mxCell id="gqWy8MbFRQ2QWNto5ffZ-217" value="" style="edgeStyle=orthogonalEdgeStyle;rounded=0;orthogonalLoop=1;jettySize=auto;html=1;" edge="1" parent="gqWy8MbFRQ2QWNto5ffZ-66" source="gqWy8MbFRQ2QWNto5ffZ-73" target="gqWy8MbFRQ2QWNto5ffZ-216">
          <mxGeometry relative="1" as="geometry" />
        </mxCell>
        <mxCell id="gqWy8MbFRQ2QWNto5ffZ-218" value="has_many" style="edgeLabel;html=1;align=center;verticalAlign=middle;resizable=0;points=[];" vertex="1" connectable="0" parent="gqWy8MbFRQ2QWNto5ffZ-217">
          <mxGeometry x="-0.1221" relative="1" as="geometry">
            <mxPoint as="offset" />
          </mxGeometry>
        </mxCell>
        <mxCell id="gqWy8MbFRQ2QWNto5ffZ-73" value="Воркер" style="rounded=1;whiteSpace=wrap;html=1;strokeColor=#97D077;strokeWidth=3;" vertex="1" parent="gqWy8MbFRQ2QWNto5ffZ-66">
          <mxGeometry x="350" y="340" width="120" height="60" as="geometry" />
        </mxCell>
        <mxCell id="gqWy8MbFRQ2QWNto5ffZ-77" value="" style="edgeStyle=orthogonalEdgeStyle;rounded=0;orthogonalLoop=1;jettySize=auto;html=1;jumpStyle=arc;" edge="1" parent="gqWy8MbFRQ2QWNto5ffZ-66" source="gqWy8MbFRQ2QWNto5ffZ-81" target="gqWy8MbFRQ2QWNto5ffZ-82">
          <mxGeometry relative="1" as="geometry" />
        </mxCell>
        <mxCell id="gqWy8MbFRQ2QWNto5ffZ-78" value="has_one" style="edgeLabel;html=1;align=center;verticalAlign=middle;resizable=0;points=[];" vertex="1" connectable="0" parent="gqWy8MbFRQ2QWNto5ffZ-77">
          <mxGeometry x="0.0382" y="2" relative="1" as="geometry">
            <mxPoint as="offset" />
          </mxGeometry>
        </mxCell>
        <mxCell id="gqWy8MbFRQ2QWNto5ffZ-89" style="edgeStyle=orthogonalEdgeStyle;rounded=0;orthogonalLoop=1;jettySize=auto;html=1;exitX=0.75;exitY=0;exitDx=0;exitDy=0;entryX=0;entryY=0.75;entryDx=0;entryDy=0;jumpStyle=arc;jumpSize=10;" edge="1" parent="gqWy8MbFRQ2QWNto5ffZ-66" source="gqWy8MbFRQ2QWNto5ffZ-81" target="gqWy8MbFRQ2QWNto5ffZ-88">
          <mxGeometry relative="1" as="geometry" />
        </mxCell>
        <mxCell id="gqWy8MbFRQ2QWNto5ffZ-92" value="" style="edgeStyle=orthogonalEdgeStyle;rounded=0;orthogonalLoop=1;jettySize=auto;html=1;" edge="1" parent="gqWy8MbFRQ2QWNto5ffZ-66" source="gqWy8MbFRQ2QWNto5ffZ-81" target="gqWy8MbFRQ2QWNto5ffZ-91">
          <mxGeometry relative="1" as="geometry" />
        </mxCell>
        <mxCell id="gqWy8MbFRQ2QWNto5ffZ-94" value="has_one" style="edgeLabel;html=1;align=center;verticalAlign=middle;resizable=0;points=[];" vertex="1" connectable="0" parent="gqWy8MbFRQ2QWNto5ffZ-92">
          <mxGeometry x="-0.0833" relative="1" as="geometry">
            <mxPoint as="offset" />
          </mxGeometry>
        </mxCell>
        <mxCell id="gqWy8MbFRQ2QWNto5ffZ-81" value="Заказы" style="whiteSpace=wrap;html=1;rounded=1;" vertex="1" parent="gqWy8MbFRQ2QWNto5ffZ-66">
          <mxGeometry x="350" y="200" width="120" height="60" as="geometry" />
        </mxCell>
        <mxCell id="gqWy8MbFRQ2QWNto5ffZ-82" value="Статус заказа" style="whiteSpace=wrap;html=1;rounded=1;" vertex="1" parent="gqWy8MbFRQ2QWNto5ffZ-66">
          <mxGeometry x="480" y="50" width="120" height="60" as="geometry" />
        </mxCell>
        <mxCell id="gqWy8MbFRQ2QWNto5ffZ-83" value="Данные Золотой шляпы" style="whiteSpace=wrap;html=1;rounded=1;" vertex="1" parent="gqWy8MbFRQ2QWNto5ffZ-66">
          <mxGeometry x="550" y="340" width="120" height="60" as="geometry" />
        </mxCell>
        <mxCell id="gqWy8MbFRQ2QWNto5ffZ-85" value="Акт выполнения" style="whiteSpace=wrap;html=1;rounded=1;" vertex="1" parent="gqWy8MbFRQ2QWNto5ffZ-66">
          <mxGeometry x="130" y="60" width="120" height="60" as="geometry" />
        </mxCell>
        <mxCell id="gqWy8MbFRQ2QWNto5ffZ-86" style="edgeStyle=orthogonalEdgeStyle;rounded=0;orthogonalLoop=1;jettySize=auto;html=1;exitX=0;exitY=0;exitDx=0;exitDy=0;entryX=0.648;entryY=1.063;entryDx=0;entryDy=0;entryPerimeter=0;" edge="1" parent="gqWy8MbFRQ2QWNto5ffZ-66" source="gqWy8MbFRQ2QWNto5ffZ-81" target="gqWy8MbFRQ2QWNto5ffZ-85">
          <mxGeometry relative="1" as="geometry" />
        </mxCell>
        <mxCell id="gqWy8MbFRQ2QWNto5ffZ-93" value="has_one" style="edgeLabel;html=1;align=center;verticalAlign=middle;resizable=0;points=[];" vertex="1" connectable="0" parent="gqWy8MbFRQ2QWNto5ffZ-86">
          <mxGeometry x="0.1491" y="2" relative="1" as="geometry">
            <mxPoint as="offset" />
          </mxGeometry>
        </mxCell>
        <mxCell id="gqWy8MbFRQ2QWNto5ffZ-87" value="Характеристики" style="whiteSpace=wrap;html=1;rounded=1;strokeColor=#97D077;strokeWidth=3;" vertex="1" parent="gqWy8MbFRQ2QWNto5ffZ-66">
          <mxGeometry x="160" y="440" width="120" height="60" as="geometry" />
        </mxCell>
        <mxCell id="gqWy8MbFRQ2QWNto5ffZ-88" value="Комплект расходников" style="whiteSpace=wrap;html=1;rounded=1;" vertex="1" parent="gqWy8MbFRQ2QWNto5ffZ-66">
          <mxGeometry x="580" y="130" width="120" height="60" as="geometry" />
        </mxCell>
        <mxCell id="gqWy8MbFRQ2QWNto5ffZ-91" value="Отметка о начале выполнения" style="whiteSpace=wrap;html=1;rounded=1;" vertex="1" parent="gqWy8MbFRQ2QWNto5ffZ-66">
          <mxGeometry x="150" y="200" width="120" height="60" as="geometry" />
        </mxCell>
        <mxCell id="gqWy8MbFRQ2QWNto5ffZ-216" value="Выплата" style="whiteSpace=wrap;html=1;rounded=1;strokeColor=#97D077;strokeWidth=3;" vertex="1" parent="gqWy8MbFRQ2QWNto5ffZ-66">
          <mxGeometry x="470" y="470" width="120" height="60" as="geometry" />
        </mxCell>
        <mxCell id="gqWy8MbFRQ2QWNto5ffZ-95" value="Секретный алгоритм" style="swimlane;whiteSpace=wrap;html=1;" vertex="1" parent="1">
          <mxGeometry x="440" y="-590" width="520" height="330" as="geometry" />
        </mxCell>
        <mxCell id="gqWy8MbFRQ2QWNto5ffZ-100" value="" style="edgeStyle=orthogonalEdgeStyle;rounded=0;orthogonalLoop=1;jettySize=auto;html=1;" edge="1" parent="gqWy8MbFRQ2QWNto5ffZ-95" source="gqWy8MbFRQ2QWNto5ffZ-102" target="gqWy8MbFRQ2QWNto5ffZ-117">
          <mxGeometry relative="1" as="geometry" />
        </mxCell>
        <mxCell id="gqWy8MbFRQ2QWNto5ffZ-101" value="has_many" style="edgeLabel;html=1;align=center;verticalAlign=middle;resizable=0;points=[];" vertex="1" connectable="0" parent="gqWy8MbFRQ2QWNto5ffZ-100">
          <mxGeometry x="0.1897" y="-4" relative="1" as="geometry">
            <mxPoint x="-1" as="offset" />
          </mxGeometry>
        </mxCell>
        <mxCell id="gqWy8MbFRQ2QWNto5ffZ-102" value="Воркер" style="rounded=1;whiteSpace=wrap;html=1;strokeColor=#97D077;strokeWidth=3;" vertex="1" parent="gqWy8MbFRQ2QWNto5ffZ-95">
          <mxGeometry x="360" y="260" width="120" height="60" as="geometry" />
        </mxCell>
        <mxCell id="gqWy8MbFRQ2QWNto5ffZ-110" value="Заявка на мэтчинг" style="whiteSpace=wrap;html=1;rounded=1;" vertex="1" parent="gqWy8MbFRQ2QWNto5ffZ-95">
          <mxGeometry x="190" y="50" width="120" height="60" as="geometry" />
        </mxCell>
        <mxCell id="gqWy8MbFRQ2QWNto5ffZ-117" value="Характеристики" style="whiteSpace=wrap;html=1;rounded=1;" vertex="1" parent="gqWy8MbFRQ2QWNto5ffZ-95">
          <mxGeometry x="100" y="260" width="120" height="60" as="geometry" />
        </mxCell>
        <mxCell id="gqWy8MbFRQ2QWNto5ffZ-123" value="общая сумма заказов клиента&lt;div&gt;&lt;br&gt;&lt;/div&gt;" style="text;strokeColor=none;fillColor=none;align=left;verticalAlign=middle;spacingLeft=4;spacingRight=4;overflow=hidden;points=[[0,0.5],[1,0.5]];portConstraint=eastwest;rotatable=0;whiteSpace=wrap;html=1;" vertex="1" parent="gqWy8MbFRQ2QWNto5ffZ-95">
          <mxGeometry x="190" y="110" width="110" height="30" as="geometry" />
        </mxCell>
        <mxCell id="gqWy8MbFRQ2QWNto5ffZ-249" value="&lt;div&gt;параметры заказа&lt;/div&gt;" style="text;strokeColor=none;fillColor=none;align=left;verticalAlign=middle;spacingLeft=4;spacingRight=4;overflow=hidden;points=[[0,0.5],[1,0.5]];portConstraint=eastwest;rotatable=0;whiteSpace=wrap;html=1;" vertex="1" parent="gqWy8MbFRQ2QWNto5ffZ-95">
          <mxGeometry x="195" y="150" width="110" height="30" as="geometry" />
        </mxCell>
        <mxCell id="gqWy8MbFRQ2QWNto5ffZ-125" value="Склад" style="swimlane;whiteSpace=wrap;html=1;" vertex="1" parent="1">
          <mxGeometry x="2460" y="-310" width="610" height="380" as="geometry" />
        </mxCell>
        <mxCell id="gqWy8MbFRQ2QWNto5ffZ-152" value="" style="edgeStyle=orthogonalEdgeStyle;rounded=0;orthogonalLoop=1;jettySize=auto;html=1;" edge="1" parent="gqWy8MbFRQ2QWNto5ffZ-125" source="gqWy8MbFRQ2QWNto5ffZ-150" target="gqWy8MbFRQ2QWNto5ffZ-151">
          <mxGeometry relative="1" as="geometry" />
        </mxCell>
        <mxCell id="gqWy8MbFRQ2QWNto5ffZ-153" value="has_many" style="edgeLabel;html=1;align=center;verticalAlign=middle;resizable=0;points=[];" vertex="1" connectable="0" parent="gqWy8MbFRQ2QWNto5ffZ-152">
          <mxGeometry x="-0.1485" y="-3" relative="1" as="geometry">
            <mxPoint as="offset" />
          </mxGeometry>
        </mxCell>
        <mxCell id="gqWy8MbFRQ2QWNto5ffZ-155" value="" style="edgeStyle=orthogonalEdgeStyle;rounded=0;orthogonalLoop=1;jettySize=auto;html=1;" edge="1" parent="gqWy8MbFRQ2QWNto5ffZ-125" source="gqWy8MbFRQ2QWNto5ffZ-150" target="gqWy8MbFRQ2QWNto5ffZ-154">
          <mxGeometry relative="1" as="geometry" />
        </mxCell>
        <mxCell id="gqWy8MbFRQ2QWNto5ffZ-156" value="has_one" style="edgeLabel;html=1;align=center;verticalAlign=middle;resizable=0;points=[];" vertex="1" connectable="0" parent="gqWy8MbFRQ2QWNto5ffZ-155">
          <mxGeometry x="0.0529" y="-1" relative="1" as="geometry">
            <mxPoint as="offset" />
          </mxGeometry>
        </mxCell>
        <mxCell id="gqWy8MbFRQ2QWNto5ffZ-158" value="" style="edgeStyle=orthogonalEdgeStyle;rounded=0;orthogonalLoop=1;jettySize=auto;html=1;" edge="1" parent="gqWy8MbFRQ2QWNto5ffZ-125" source="gqWy8MbFRQ2QWNto5ffZ-150" target="gqWy8MbFRQ2QWNto5ffZ-157">
          <mxGeometry relative="1" as="geometry" />
        </mxCell>
        <mxCell id="gqWy8MbFRQ2QWNto5ffZ-161" value="has_one" style="edgeLabel;html=1;align=center;verticalAlign=middle;resizable=0;points=[];" vertex="1" connectable="0" parent="gqWy8MbFRQ2QWNto5ffZ-158">
          <mxGeometry x="-0.1341" y="-1" relative="1" as="geometry">
            <mxPoint as="offset" />
          </mxGeometry>
        </mxCell>
        <mxCell id="gqWy8MbFRQ2QWNto5ffZ-214" value="" style="edgeStyle=orthogonalEdgeStyle;rounded=0;orthogonalLoop=1;jettySize=auto;html=1;" edge="1" parent="gqWy8MbFRQ2QWNto5ffZ-125" source="gqWy8MbFRQ2QWNto5ffZ-150" target="gqWy8MbFRQ2QWNto5ffZ-213">
          <mxGeometry relative="1" as="geometry" />
        </mxCell>
        <mxCell id="gqWy8MbFRQ2QWNto5ffZ-215" value="has_one" style="edgeLabel;html=1;align=center;verticalAlign=middle;resizable=0;points=[];" vertex="1" connectable="0" parent="gqWy8MbFRQ2QWNto5ffZ-214">
          <mxGeometry x="-0.4111" y="1" relative="1" as="geometry">
            <mxPoint as="offset" />
          </mxGeometry>
        </mxCell>
        <mxCell id="gqWy8MbFRQ2QWNto5ffZ-150" value="Комплект расходников" style="rounded=1;whiteSpace=wrap;html=1;" vertex="1" parent="gqWy8MbFRQ2QWNto5ffZ-125">
          <mxGeometry x="250" y="180" width="120" height="60" as="geometry" />
        </mxCell>
        <mxCell id="gqWy8MbFRQ2QWNto5ffZ-151" value="Расходник" style="whiteSpace=wrap;html=1;rounded=1;" vertex="1" parent="gqWy8MbFRQ2QWNto5ffZ-125">
          <mxGeometry x="50" y="180" width="120" height="60" as="geometry" />
        </mxCell>
        <mxCell id="gqWy8MbFRQ2QWNto5ffZ-154" value="Печенька" style="whiteSpace=wrap;html=1;rounded=1;" vertex="1" parent="gqWy8MbFRQ2QWNto5ffZ-125">
          <mxGeometry x="250" y="40" width="120" height="60" as="geometry" />
        </mxCell>
        <mxCell id="gqWy8MbFRQ2QWNto5ffZ-157" value="Заказ" style="whiteSpace=wrap;html=1;rounded=1;strokeColor=#97D077;strokeWidth=3;" vertex="1" parent="gqWy8MbFRQ2QWNto5ffZ-125">
          <mxGeometry x="450" y="180" width="120" height="60" as="geometry" />
        </mxCell>
        <mxCell id="gqWy8MbFRQ2QWNto5ffZ-160" value="Клиент" style="text;strokeColor=none;fillColor=none;align=left;verticalAlign=middle;spacingLeft=4;spacingRight=4;overflow=hidden;points=[[0,0.5],[1,0.5]];portConstraint=eastwest;rotatable=0;whiteSpace=wrap;html=1;" vertex="1" parent="gqWy8MbFRQ2QWNto5ffZ-125">
          <mxGeometry x="450" y="250" width="80" height="30" as="geometry" />
        </mxCell>
        <mxCell id="gqWy8MbFRQ2QWNto5ffZ-159" value="Воркер" style="text;strokeColor=none;fillColor=none;align=left;verticalAlign=middle;spacingLeft=4;spacingRight=4;overflow=hidden;points=[[0,0.5],[1,0.5]];portConstraint=eastwest;rotatable=0;whiteSpace=wrap;html=1;" vertex="1" parent="gqWy8MbFRQ2QWNto5ffZ-125">
          <mxGeometry x="450" y="270" width="80" height="30" as="geometry" />
        </mxCell>
        <mxCell id="gqWy8MbFRQ2QWNto5ffZ-162" value="Сотрудник" style="rounded=1;whiteSpace=wrap;html=1;" vertex="1" parent="gqWy8MbFRQ2QWNto5ffZ-125">
          <mxGeometry x="450" y="50" width="120" height="60" as="geometry" />
        </mxCell>
        <mxCell id="gqWy8MbFRQ2QWNto5ffZ-213" value="Бланк приёма работы" style="whiteSpace=wrap;html=1;rounded=1;" vertex="1" parent="gqWy8MbFRQ2QWNto5ffZ-125">
          <mxGeometry x="250" y="300" width="120" height="60" as="geometry" />
        </mxCell>
        <mxCell id="gqWy8MbFRQ2QWNto5ffZ-187" value="Билинг" style="swimlane;whiteSpace=wrap;html=1;" vertex="1" parent="1">
          <mxGeometry x="1100" y="1270" width="580" height="480" as="geometry" />
        </mxCell>
        <mxCell id="gqWy8MbFRQ2QWNto5ffZ-189" value="Счет в шляпе" style="text;strokeColor=none;fillColor=none;align=left;verticalAlign=middle;spacingLeft=4;spacingRight=4;overflow=hidden;points=[[0,0.5],[1,0.5]];portConstraint=eastwest;rotatable=0;whiteSpace=wrap;html=1;" vertex="1" parent="gqWy8MbFRQ2QWNto5ffZ-187">
          <mxGeometry x="40" y="400" width="80" height="30" as="geometry" />
        </mxCell>
        <mxCell id="gqWy8MbFRQ2QWNto5ffZ-194" style="edgeStyle=orthogonalEdgeStyle;rounded=0;orthogonalLoop=1;jettySize=auto;html=1;exitX=0;exitY=0.5;exitDx=0;exitDy=0;entryX=1;entryY=0.5;entryDx=0;entryDy=0;" edge="1" parent="gqWy8MbFRQ2QWNto5ffZ-187" source="gqWy8MbFRQ2QWNto5ffZ-190" target="gqWy8MbFRQ2QWNto5ffZ-192">
          <mxGeometry relative="1" as="geometry" />
        </mxCell>
        <mxCell id="gqWy8MbFRQ2QWNto5ffZ-195" value="has_many" style="edgeLabel;html=1;align=center;verticalAlign=middle;resizable=0;points=[];" vertex="1" connectable="0" parent="gqWy8MbFRQ2QWNto5ffZ-194">
          <mxGeometry x="-0.4667" y="-3" relative="1" as="geometry">
            <mxPoint as="offset" />
          </mxGeometry>
        </mxCell>
        <mxCell id="gqWy8MbFRQ2QWNto5ffZ-190" value="Клиент" style="rounded=1;whiteSpace=wrap;html=1;strokeWidth=3;strokeColor=#97D077;" vertex="1" parent="gqWy8MbFRQ2QWNto5ffZ-187">
          <mxGeometry x="440" y="330" width="120" height="60" as="geometry" />
        </mxCell>
        <mxCell id="gqWy8MbFRQ2QWNto5ffZ-191" value="Счета" style="text;strokeColor=none;fillColor=none;align=left;verticalAlign=middle;spacingLeft=4;spacingRight=4;overflow=hidden;points=[[0,0.5],[1,0.5]];portConstraint=eastwest;rotatable=0;whiteSpace=wrap;html=1;" vertex="1" parent="gqWy8MbFRQ2QWNto5ffZ-187">
          <mxGeometry x="440" y="370" width="80" height="80" as="geometry" />
        </mxCell>
        <mxCell id="gqWy8MbFRQ2QWNto5ffZ-239" value="" style="edgeStyle=orthogonalEdgeStyle;rounded=0;orthogonalLoop=1;jettySize=auto;html=1;" edge="1" parent="gqWy8MbFRQ2QWNto5ffZ-187" source="gqWy8MbFRQ2QWNto5ffZ-192" target="gqWy8MbFRQ2QWNto5ffZ-238">
          <mxGeometry relative="1" as="geometry" />
        </mxCell>
        <mxCell id="gqWy8MbFRQ2QWNto5ffZ-257" style="edgeStyle=orthogonalEdgeStyle;rounded=0;orthogonalLoop=1;jettySize=auto;html=1;exitX=1;exitY=0.5;exitDx=0;exitDy=0;entryX=0;entryY=0.5;entryDx=0;entryDy=0;" edge="1" parent="gqWy8MbFRQ2QWNto5ffZ-187" source="gqWy8MbFRQ2QWNto5ffZ-225" target="gqWy8MbFRQ2QWNto5ffZ-192">
          <mxGeometry relative="1" as="geometry" />
        </mxCell>
        <mxCell id="gqWy8MbFRQ2QWNto5ffZ-258" value="has_many" style="edgeLabel;html=1;align=center;verticalAlign=middle;resizable=0;points=[];" vertex="1" connectable="0" parent="gqWy8MbFRQ2QWNto5ffZ-257">
          <mxGeometry x="0.0033" y="-1" relative="1" as="geometry">
            <mxPoint as="offset" />
          </mxGeometry>
        </mxCell>
        <mxCell id="gqWy8MbFRQ2QWNto5ffZ-192" value="Заказ" style="whiteSpace=wrap;html=1;rounded=1;" vertex="1" parent="gqWy8MbFRQ2QWNto5ffZ-187">
          <mxGeometry x="260" y="230" width="120" height="60" as="geometry" />
        </mxCell>
        <mxCell id="gqWy8MbFRQ2QWNto5ffZ-197" value="Статус" style="text;strokeColor=none;fillColor=none;align=left;verticalAlign=middle;spacingLeft=4;spacingRight=4;overflow=hidden;points=[[0,0.5],[1,0.5]];portConstraint=eastwest;rotatable=0;whiteSpace=wrap;html=1;" vertex="1" parent="gqWy8MbFRQ2QWNto5ffZ-187">
          <mxGeometry x="265" y="310" width="80" height="30" as="geometry" />
        </mxCell>
        <mxCell id="gqWy8MbFRQ2QWNto5ffZ-198" value="Стоимость" style="text;strokeColor=none;fillColor=none;align=left;verticalAlign=middle;spacingLeft=4;spacingRight=4;overflow=hidden;points=[[0,0.5],[1,0.5]];portConstraint=eastwest;rotatable=0;whiteSpace=wrap;html=1;" vertex="1" parent="gqWy8MbFRQ2QWNto5ffZ-187">
          <mxGeometry x="260" y="290" width="80" height="30" as="geometry" />
        </mxCell>
        <mxCell id="gqWy8MbFRQ2QWNto5ffZ-225" value="Воркер" style="rounded=1;whiteSpace=wrap;html=1;strokeColor=#97D077;strokeWidth=3;" vertex="1" parent="gqWy8MbFRQ2QWNto5ffZ-187">
          <mxGeometry x="40" y="330" width="120" height="60" as="geometry" />
        </mxCell>
        <mxCell id="gqWy8MbFRQ2QWNto5ffZ-238" value="Инвойс" style="whiteSpace=wrap;html=1;rounded=1;strokeColor=default;" vertex="1" parent="gqWy8MbFRQ2QWNto5ffZ-187">
          <mxGeometry x="260" y="100" width="120" height="60" as="geometry" />
        </mxCell>
        <mxCell id="gqWy8MbFRQ2QWNto5ffZ-199" value="Тотализатор" style="swimlane;whiteSpace=wrap;html=1;" vertex="1" parent="1">
          <mxGeometry x="2030" y="1300" width="410" height="310" as="geometry" />
        </mxCell>
        <mxCell id="gqWy8MbFRQ2QWNto5ffZ-204" value="" style="edgeStyle=orthogonalEdgeStyle;rounded=0;orthogonalLoop=1;jettySize=auto;html=1;" edge="1" parent="gqWy8MbFRQ2QWNto5ffZ-199" source="gqWy8MbFRQ2QWNto5ffZ-201" target="gqWy8MbFRQ2QWNto5ffZ-203">
          <mxGeometry relative="1" as="geometry" />
        </mxCell>
        <mxCell id="gqWy8MbFRQ2QWNto5ffZ-253" value="has_one" style="edgeLabel;html=1;align=center;verticalAlign=middle;resizable=0;points=[];" vertex="1" connectable="0" parent="gqWy8MbFRQ2QWNto5ffZ-204">
          <mxGeometry x="-0.125" y="-1" relative="1" as="geometry">
            <mxPoint as="offset" />
          </mxGeometry>
        </mxCell>
        <mxCell id="gqWy8MbFRQ2QWNto5ffZ-201" value="Ставка" style="whiteSpace=wrap;html=1;rounded=1;" vertex="1" parent="gqWy8MbFRQ2QWNto5ffZ-199">
          <mxGeometry x="20" y="180" width="120" height="60" as="geometry" />
        </mxCell>
        <mxCell id="gqWy8MbFRQ2QWNto5ffZ-251" value="" style="edgeStyle=orthogonalEdgeStyle;rounded=0;orthogonalLoop=1;jettySize=auto;html=1;" edge="1" parent="gqWy8MbFRQ2QWNto5ffZ-199" source="gqWy8MbFRQ2QWNto5ffZ-203" target="gqWy8MbFRQ2QWNto5ffZ-250">
          <mxGeometry relative="1" as="geometry" />
        </mxCell>
        <mxCell id="gqWy8MbFRQ2QWNto5ffZ-254" value="has_one" style="edgeLabel;html=1;align=center;verticalAlign=middle;resizable=0;points=[];" vertex="1" connectable="0" parent="gqWy8MbFRQ2QWNto5ffZ-251">
          <mxGeometry x="-0.1125" y="-3" relative="1" as="geometry">
            <mxPoint as="offset" />
          </mxGeometry>
        </mxCell>
        <mxCell id="gqWy8MbFRQ2QWNto5ffZ-203" value="Событие" style="whiteSpace=wrap;html=1;rounded=1;" vertex="1" parent="gqWy8MbFRQ2QWNto5ffZ-199">
          <mxGeometry x="220" y="180" width="120" height="60" as="geometry" />
        </mxCell>
        <mxCell id="gqWy8MbFRQ2QWNto5ffZ-250" value="Статус" style="whiteSpace=wrap;html=1;rounded=1;" vertex="1" parent="gqWy8MbFRQ2QWNto5ffZ-199">
          <mxGeometry x="220" y="40" width="120" height="60" as="geometry" />
        </mxCell>
        <mxCell id="gqWy8MbFRQ2QWNto5ffZ-255" value="Кто сделал ставку" style="text;strokeColor=none;fillColor=none;align=left;verticalAlign=middle;spacingLeft=4;spacingRight=4;overflow=hidden;points=[[0,0.5],[1,0.5]];portConstraint=eastwest;rotatable=0;whiteSpace=wrap;html=1;" vertex="1" parent="gqWy8MbFRQ2QWNto5ffZ-199">
          <mxGeometry x="20" y="240" width="100" height="30" as="geometry" />
        </mxCell>
        <mxCell id="gqWy8MbFRQ2QWNto5ffZ-256" value="На что сделал ставку" style="text;strokeColor=none;fillColor=none;align=left;verticalAlign=middle;spacingLeft=4;spacingRight=4;overflow=hidden;points=[[0,0.5],[1,0.5]];portConstraint=eastwest;rotatable=0;whiteSpace=wrap;html=1;" vertex="1" parent="gqWy8MbFRQ2QWNto5ffZ-199">
          <mxGeometry x="20" y="270" width="100" height="30" as="geometry" />
        </mxCell>
        <mxCell id="gqWy8MbFRQ2QWNto5ffZ-206" value="Нотификации" style="swimlane;whiteSpace=wrap;html=1;" vertex="1" parent="1">
          <mxGeometry x="2320" y="1000" width="180" height="150" as="geometry" />
        </mxCell>
        <mxCell id="gqWy8MbFRQ2QWNto5ffZ-208" value="Шаблон письма" style="rounded=1;whiteSpace=wrap;html=1;" vertex="1" parent="gqWy8MbFRQ2QWNto5ffZ-206">
          <mxGeometry x="40" y="50" width="120" height="60" as="geometry" />
        </mxCell>
        <mxCell id="gqWy8MbFRQ2QWNto5ffZ-222" style="edgeStyle=orthogonalEdgeStyle;rounded=0;orthogonalLoop=1;jettySize=auto;html=1;entryX=0;entryY=0.5;entryDx=0;entryDy=0;dashed=1;dashPattern=12 12;strokeWidth=3;fillColor=#d5e8d4;strokeColor=#82b366;jumpStyle=arc;exitX=1;exitY=0.5;exitDx=0;exitDy=0;" edge="1" parent="1" source="gqWy8MbFRQ2QWNto5ffZ-17" target="gqWy8MbFRQ2QWNto5ffZ-87">
          <mxGeometry relative="1" as="geometry">
            <mxPoint x="490" y="620" as="sourcePoint" />
            <Array as="points">
              <mxPoint x="600" y="580" />
              <mxPoint x="600" y="770" />
            </Array>
          </mxGeometry>
        </mxCell>
        <mxCell id="gqWy8MbFRQ2QWNto5ffZ-223" style="edgeStyle=orthogonalEdgeStyle;rounded=0;orthogonalLoop=1;jettySize=auto;html=1;exitX=1;exitY=0.25;exitDx=0;exitDy=0;entryX=0;entryY=0.25;entryDx=0;entryDy=0;fillColor=#d5e8d4;strokeColor=#82b366;dashed=1;dashPattern=12 12;strokeWidth=3;" edge="1" parent="1" source="gqWy8MbFRQ2QWNto5ffZ-3" target="gqWy8MbFRQ2QWNto5ffZ-73">
          <mxGeometry relative="1" as="geometry" />
        </mxCell>
        <mxCell id="gqWy8MbFRQ2QWNto5ffZ-224" style="edgeStyle=orthogonalEdgeStyle;rounded=0;orthogonalLoop=1;jettySize=auto;html=1;exitX=0.5;exitY=1;exitDx=0;exitDy=0;entryX=0.75;entryY=1;entryDx=0;entryDy=0;dashed=1;dashPattern=12 12;strokeWidth=3;fillColor=#d5e8d4;strokeColor=#82b366;" edge="1" parent="1" source="gqWy8MbFRQ2QWNto5ffZ-25" target="gqWy8MbFRQ2QWNto5ffZ-41">
          <mxGeometry relative="1" as="geometry">
            <Array as="points">
              <mxPoint x="2200" y="1080" />
              <mxPoint x="320" y="1080" />
            </Array>
          </mxGeometry>
        </mxCell>
        <mxCell id="gqWy8MbFRQ2QWNto5ffZ-229" style="edgeStyle=orthogonalEdgeStyle;rounded=0;orthogonalLoop=1;jettySize=auto;html=1;exitX=0.25;exitY=0;exitDx=0;exitDy=0;entryX=0.5;entryY=1;entryDx=0;entryDy=0;dashed=1;dashPattern=12 12;fillColor=#d5e8d4;strokeColor=#82b366;strokeWidth=3;" edge="1" parent="1" source="gqWy8MbFRQ2QWNto5ffZ-73" target="gqWy8MbFRQ2QWNto5ffZ-102">
          <mxGeometry relative="1" as="geometry" />
        </mxCell>
        <mxCell id="gqWy8MbFRQ2QWNto5ffZ-230" style="edgeStyle=orthogonalEdgeStyle;rounded=0;orthogonalLoop=1;jettySize=auto;html=1;exitX=0.25;exitY=1;exitDx=0;exitDy=0;dashed=1;dashPattern=12 12;strokeWidth=3;fillColor=#d5e8d4;strokeColor=#82b366;entryX=0.5;entryY=0;entryDx=0;entryDy=0;" edge="1" parent="1" source="gqWy8MbFRQ2QWNto5ffZ-73" target="gqWy8MbFRQ2QWNto5ffZ-225">
          <mxGeometry relative="1" as="geometry" />
        </mxCell>
        <mxCell id="gqWy8MbFRQ2QWNto5ffZ-236" style="edgeStyle=orthogonalEdgeStyle;rounded=0;orthogonalLoop=1;jettySize=auto;html=1;exitX=1;exitY=0.5;exitDx=0;exitDy=0;entryX=0.25;entryY=0;entryDx=0;entryDy=0;dashed=1;dashPattern=12 12;strokeWidth=3;fillColor=#d5e8d4;strokeColor=#82b366;" edge="1" parent="1" source="gqWy8MbFRQ2QWNto5ffZ-46" target="gqWy8MbFRQ2QWNto5ffZ-157">
          <mxGeometry relative="1" as="geometry" />
        </mxCell>
        <mxCell id="gqWy8MbFRQ2QWNto5ffZ-240" style="edgeStyle=orthogonalEdgeStyle;rounded=0;orthogonalLoop=1;jettySize=auto;html=1;exitX=0.25;exitY=0;exitDx=0;exitDy=0;entryX=0.842;entryY=0.95;entryDx=0;entryDy=0;entryPerimeter=0;strokeWidth=3;strokeColor=#97D077;dashed=1;dashPattern=12 12;" edge="1" parent="1" source="gqWy8MbFRQ2QWNto5ffZ-238" target="gqWy8MbFRQ2QWNto5ffZ-216">
          <mxGeometry relative="1" as="geometry" />
        </mxCell>
        <mxCell id="gqWy8MbFRQ2QWNto5ffZ-243" style="edgeStyle=orthogonalEdgeStyle;rounded=0;orthogonalLoop=1;jettySize=auto;html=1;exitX=1;exitY=0;exitDx=0;exitDy=0;strokeWidth=3;fillColor=#d5e8d4;strokeColor=#82b366;dashed=1;dashPattern=12 12;entryX=0.347;entryY=-0.006;entryDx=0;entryDy=0;entryPerimeter=0;" edge="1" parent="1" source="gqWy8MbFRQ2QWNto5ffZ-73" target="gqWy8MbFRQ2QWNto5ffZ-170">
          <mxGeometry relative="1" as="geometry">
            <mxPoint x="-80" y="1040" as="targetPoint" />
          </mxGeometry>
        </mxCell>
        <mxCell id="gqWy8MbFRQ2QWNto5ffZ-244" style="edgeStyle=orthogonalEdgeStyle;rounded=0;orthogonalLoop=1;jettySize=auto;html=1;exitX=1;exitY=0.75;exitDx=0;exitDy=0;entryX=0.25;entryY=0;entryDx=0;entryDy=0;strokeWidth=3;dashed=1;dashPattern=12 12;strokeColor=#97D077;" edge="1" parent="1" source="gqWy8MbFRQ2QWNto5ffZ-43" target="gqWy8MbFRQ2QWNto5ffZ-171">
          <mxGeometry relative="1" as="geometry" />
        </mxCell>
        <mxCell id="gqWy8MbFRQ2QWNto5ffZ-247" style="edgeStyle=orthogonalEdgeStyle;rounded=0;orthogonalLoop=1;jettySize=auto;html=1;exitX=1;exitY=0;exitDx=0;exitDy=0;entryX=0.75;entryY=1;entryDx=0;entryDy=0;strokeWidth=3;strokeColor=#97D077;dashed=1;dashPattern=12 12;" edge="1" parent="1" source="gqWy8MbFRQ2QWNto5ffZ-238" target="gqWy8MbFRQ2QWNto5ffZ-219">
          <mxGeometry relative="1" as="geometry" />
        </mxCell>
        <mxCell id="gqWy8MbFRQ2QWNto5ffZ-248" style="edgeStyle=orthogonalEdgeStyle;rounded=0;orthogonalLoop=1;jettySize=auto;html=1;exitX=0.75;exitY=1;exitDx=0;exitDy=0;entryX=0.75;entryY=0;entryDx=0;entryDy=0;strokeWidth=3;dashed=1;dashPattern=12 12;fillColor=#d5e8d4;strokeColor=#97D077;" edge="1" parent="1" source="gqWy8MbFRQ2QWNto5ffZ-43" target="gqWy8MbFRQ2QWNto5ffZ-190">
          <mxGeometry relative="1" as="geometry" />
        </mxCell>
        <mxCell id="gqWy8MbFRQ2QWNto5ffZ-260" value="" style="swimlane;startSize=0;" vertex="1" parent="1">
          <mxGeometry x="-180" y="-820" width="200" height="200" as="geometry" />
        </mxCell>
        <mxCell id="gqWy8MbFRQ2QWNto5ffZ-261" value="&lt;font style=&quot;font-size: 18px;&quot;&gt;Легенда&lt;/font&gt;" style="text;html=1;align=center;verticalAlign=middle;resizable=0;points=[];autosize=1;strokeColor=none;fillColor=none;" vertex="1" parent="gqWy8MbFRQ2QWNto5ffZ-260">
          <mxGeometry x="40" y="-5" width="90" height="40" as="geometry" />
        </mxCell>
        <mxCell id="gqWy8MbFRQ2QWNto5ffZ-262" value="" style="rounded=1;whiteSpace=wrap;html=1;" vertex="1" parent="gqWy8MbFRQ2QWNto5ffZ-260">
          <mxGeometry x="10" y="35" width="80" height="35" as="geometry" />
        </mxCell>
        <mxCell id="gqWy8MbFRQ2QWNto5ffZ-263" value="" style="rounded=1;whiteSpace=wrap;html=1;strokeColor=#97D077;strokeWidth=3;" vertex="1" parent="gqWy8MbFRQ2QWNto5ffZ-260">
          <mxGeometry x="10" y="82.5" width="80" height="35" as="geometry" />
        </mxCell>
        <mxCell id="gqWy8MbFRQ2QWNto5ffZ-266" value="&lt;font style=&quot;font-size: 18px;&quot;&gt;Produces&lt;/font&gt;" style="text;html=1;align=center;verticalAlign=middle;whiteSpace=wrap;rounded=0;" vertex="1" parent="gqWy8MbFRQ2QWNto5ffZ-260">
          <mxGeometry x="100" y="35" width="90" height="35" as="geometry" />
        </mxCell>
        <mxCell id="gqWy8MbFRQ2QWNto5ffZ-267" value="&lt;font style=&quot;font-size: 18px;&quot;&gt;Consumer&lt;/font&gt;" style="text;html=1;align=center;verticalAlign=middle;whiteSpace=wrap;rounded=0;" vertex="1" parent="gqWy8MbFRQ2QWNto5ffZ-260">
          <mxGeometry x="100" y="80" width="90" height="35" as="geometry" />
        </mxCell>
        <mxCell id="gqWy8MbFRQ2QWNto5ffZ-268" value="" style="endArrow=classic;html=1;rounded=0;strokeWidth=3;strokeColor=#97D077;dashed=1;dashPattern=12 12;" edge="1" parent="gqWy8MbFRQ2QWNto5ffZ-260">
          <mxGeometry width="50" height="50" relative="1" as="geometry">
            <mxPoint x="20" y="160" as="sourcePoint" />
            <mxPoint x="90" y="160" as="targetPoint" />
          </mxGeometry>
        </mxCell>
        <mxCell id="gqWy8MbFRQ2QWNto5ffZ-269" value="&lt;font style=&quot;font-size: 18px;&quot;&gt;Streaming&lt;/font&gt;" style="text;html=1;align=center;verticalAlign=middle;whiteSpace=wrap;rounded=0;" vertex="1" parent="gqWy8MbFRQ2QWNto5ffZ-260">
          <mxGeometry x="100" y="140" width="90" height="35" as="geometry" />
        </mxCell>
      </root>
    </mxGraphModel>
  </diagram>
</mxfile>
